<?xml version="1.0" encoding="UTF-8"?>
<svg width="288px" height="64px" viewBox="0 0 72 16" version="1.1" xmlns="http://www.w3.org/2000/svg" xmlns:xlink="http://www.w3.org/1999/xlink">
    <g id="Symbols" stroke="none" stroke-width="1" fill="none" fill-rule="evenodd">
        <g id="Light-Nav" transform="translate(-181.000000, -37.000000)" fill-rule="nonzero" fill="#E9570F">
            <g id="streamr-logo" transform="translate(181.000000, 35.000000)">
                <g id="g10" transform="translate(36.587019, 9.411111) scale(-1, 1) rotate(-180.000000) translate(-36.587019, -9.411111) translate(0.087019, 0.911111)">
                    <g id="g12" transform="translate(0.008702, 0.204444)">
                        <path d="M8.22316737,3.68186667 C8.27537862,4.8552 8.09263924,5.68186667 7.67494925,6.16186667 C7.23115363,6.6152 6.23913989,7.06853333 4.6728024,7.44186667 C3.91573929,7.62853333 3.44583804,7.78853333 3.26309867,7.94853333 C3.0803593,8.1352 3.00204242,8.42853333 3.02814805,8.88186667 C3.02814805,9.2552 3.10646492,9.4952 3.28920429,9.6552 C3.49804929,9.8152 3.88963366,9.8952 4.51616866,9.8952 C4.9860699,9.8952 5.5081824,9.86853333 6.10861176,9.78853333 C6.70904113,9.7352 7.23115363,9.6552 7.70105487,9.54853333 L7.98821675,11.9218667 C7.46610425,12.0552 6.89178051,12.1618667 6.26524551,12.2418667 C5.63871052,12.2952 5.06438678,12.3485333 4.51616866,12.3485333 C2.8715143,12.3485333 1.74897243,12.0818667 1.09633182,11.5218667 C0.443691198,10.9618667 0.156529326,10.0818667 0.182634951,8.90853333 C0.130423701,7.78853333 0.313163074,6.96186667 0.704747445,6.4552 C1.09633182,5.92186667 1.95781743,5.4952 3.34141554,5.1752 C4.25511241,4.96186667 4.82943615,4.72186667 5.06438678,4.50853333 C5.2993374,4.26853333 5.4037599,3.9752 5.37765427,3.62853333 C5.37765427,3.1752 5.2993374,2.8552 5.11659802,2.6952 C4.93385865,2.50853333 4.51616866,2.42853333 3.88963366,2.42853333 C3.28920429,2.42853333 2.68877492,2.48186667 2.08834556,2.56186667 C1.48791619,2.66853333 0.939698068,2.80186667 0.443691198,2.9352 L0.0260012022,0.668533333 C0.600324946,0.481866667 1.22685994,0.321866667 1.95781743,0.188533333 C2.71488055,0.0552 3.39362679,0.00186666667 4.04626741,0.00186666667 C5.74313302,0.00186666667 6.89178051,0.321866667 7.43999863,0.988533333 C8.01432237,1.62853333 8.27537862,2.5352 8.22316737,3.68186667" id="path14"></path>
                        <path d="M16.0548548,2.72186667 C15.8199042,2.64186667 15.5588479,2.58853333 15.3238973,2.5352 C15.062841,2.50853333 14.8278904,2.48186667 14.6190454,2.48186667 C14.2274611,2.48186667 13.9664048,2.58853333 13.8097711,2.7752 C13.6270317,2.96186667 13.5487148,3.20186667 13.5748204,3.52186667 L13.5748204,9.7352 L16.3420167,9.7352 L16.5508617,12.0818667 L13.5748204,12.0818667 L13.5748204,15.4418667 L10.6509905,15.0418667 L10.6509905,12.0818667 L8.90191361,12.0818667 L8.90191361,9.7352 L10.6509905,9.7352 L10.6509905,3.12186667 C10.6509905,2.08186667 10.9120467,1.28186667 11.4602648,0.7752 C11.9823773,0.241866667 12.7916517,0.00186666667 13.8358767,0.00186666667 C14.2274611,0.00186666667 14.6712567,0.0285333333 15.1672635,0.1352 C15.6632704,0.2152 16.0809604,0.321866667 16.3942279,0.4552" id="path16"></path>
                        <path d="M23.5211679,12.3485333 C22.9990554,12.1618667 22.4247316,11.9218667 21.8504079,11.6018667 C21.2760842,11.3085333 20.8061829,11.0152 20.4668098,10.7752 L20.2840704,12.0818667 L17.8300373,12.0818667 L17.8300373,0.241866667 L20.727866,0.241866667 L20.727866,7.86853333 C21.2499785,8.2152 21.7459854,8.5352 22.2419923,8.80186667 C22.7379991,9.0952 23.2601116,9.36186667 23.8083298,9.60186667" id="path18"></path>
                        <path d="M27.2542722,4.42853333 L27.2542722,5.04186667 L33.7284672,5.04186667 L33.7284672,7.5752 C33.7545728,8.88186667 33.4674109,10.0018667 32.8408759,10.9085333 C32.2143409,11.8152 30.9873766,12.2952 29.1599828,12.3485333 C27.3325891,12.2952 26.0795191,11.8418667 25.3746672,10.9618667 C24.6437097,10.0818667 24.3043366,8.98853333 24.3565479,7.70853333 L24.3565479,4.56186667 C24.3304422,3.12186667 24.695921,2.00186667 25.4268785,1.20186667 C26.1839416,0.401866667 27.4631172,0.00186666667 29.2644053,0.00186666667 C29.9692572,0.00186666667 30.6741091,0.0552 31.4311722,0.188533333 C32.1621297,0.2952 32.8669815,0.481866667 33.5196222,0.748533333 L33.0758265,2.98853333 C32.4492915,2.80186667 31.8227565,2.64186667 31.2484328,2.56186667 C30.6480034,2.48186667 30.0736797,2.42853333 29.5254616,2.42853333 C28.663976,2.42853333 28.0635466,2.56186667 27.7241735,2.88186667 C27.3848003,3.20186667 27.2281666,3.70853333 27.2542722,4.42853333 L27.2542722,4.42853333 Z M27.2542722,8.00186667 C27.2542722,8.56186667 27.3848003,9.04186667 27.6980678,9.36186667 C27.9852297,9.70853333 28.4812366,9.8952 29.1860884,9.8952 C29.8909403,9.8952 30.3608416,9.70853333 30.5957922,9.36186667 C30.8568484,9.04186667 30.9612709,8.56186667 30.9612709,8.00186667 L30.9612709,7.4152 L27.2542722,7.4152 L27.2542722,8.00186667 Z" id="path20"></path>
                        <path d="M44.0662945,8.0552 C44.0924002,9.52186667 43.7530271,10.6152 43.0742808,11.3085333 C42.3694289,12.0018667 41.1424646,12.3485333 39.3411765,12.3485333 C38.6885359,12.3485333 37.983684,12.2952 37.2788321,12.1885333 C36.5739802,12.0818667 35.9213396,11.9485333 35.3731215,11.7885333 L35.7124946,9.52186667 C36.2346071,9.62853333 36.7567196,9.70853333 37.3049377,9.78853333 C37.8792615,9.84186667 38.401374,9.86853333 38.9234865,9.86853333 C39.8371833,9.8952 40.4376127,9.76186667 40.7508802,9.4952 C41.0380421,9.20186667 41.1685702,8.74853333 41.1424646,8.10853333 L41.1424646,6.8552 L38.3752684,6.8552 C37.2005152,6.88186667 36.3390296,6.6152 35.7908115,6.08186667 C35.2425934,5.5752 34.9815371,4.72186667 34.9815371,3.52186667 C34.9815371,2.48186667 35.2164878,1.62853333 35.686389,0.988533333 C36.1823959,0.348533333 36.939459,0.00186666667 38.0097896,0.00186666667 C38.5841134,0.00186666667 39.1845427,0.0818666667 39.7849721,0.241866667 C40.3592958,0.428533333 40.9336196,0.6952 41.4557321,1.04186667 L41.6645771,0.241866667 L44.0662945,0.241866667 L44.0662945,8.0552 L44.0662945,8.0552 Z M41.1424646,2.96186667 C40.8814083,2.80186667 40.5420352,2.66853333 40.1765565,2.5352 C39.7849721,2.42853333 39.3933877,2.34853333 38.9495921,2.34853333 C38.5057965,2.34853333 38.2186346,2.4552 38.0358952,2.64186667 C37.8531559,2.82853333 37.774839,3.14853333 37.8009446,3.54853333 C37.774839,4.00186667 37.8531559,4.2952 38.0358952,4.48186667 C38.2186346,4.64186667 38.5319021,4.72186667 39.0018033,4.72186667 L41.1424646,4.72186667 L41.1424646,2.96186667 Z" id="path22"></path>
                        <path d="M56.0487763,0.241866667 L56.0487763,8.4552 C56.5186775,8.74853333 57.04079,8.98853333 57.6412194,9.1752 C58.2155432,9.36186667 58.6854444,9.46853333 59.0770288,9.46853333 C59.3902963,9.46853333 59.6513525,9.38853333 59.7818806,9.22853333 C59.9385144,9.06853333 59.9907256,8.82853333 59.9907256,8.50853333 L59.9907256,0.241866667 L62.9145556,0.241866667 L62.9145556,8.82853333 C62.9145556,9.8952 62.7318162,10.7485333 62.3141262,11.3885333 C61.9225419,12.0018667 61.2437956,12.3218667 60.2778875,12.3485333 C59.5730356,12.3218667 58.7898669,12.2152 57.9544869,11.9752 C57.1191069,11.7352 56.3359382,11.4418667 55.6049807,11.0685333 C55.4222413,11.4685333 55.1611851,11.7885333 54.7957063,12.0018667 C54.4302276,12.2152 53.9864319,12.3218667 53.4121082,12.3485333 C52.733362,12.3218667 51.9501932,12.2152 51.1409188,12.0018667 C50.3055389,11.7618667 49.5223701,11.4685333 48.765307,11.0952 L48.4781451,12.0818667 L46.259167,12.0818667 L46.259167,0.241866667 L49.182997,0.241866667 L49.182997,8.4552 C49.7312151,8.74853333 50.2533276,8.98853333 50.8276514,9.1752 C51.3758695,9.36186667 51.8196651,9.46853333 52.2112495,9.46853333 C52.524517,9.46853333 52.7855732,9.38853333 52.9161013,9.22853333 C53.0727351,9.06853333 53.151052,8.82853333 53.1249463,8.50853333 L53.1249463,0.241866667" id="path24"></path>
                        <path d="M70.9289824,12.3485333 C70.4068699,12.1618667 69.8325462,11.9218667 69.2582224,11.6018667 C68.6838987,11.3085333 68.2139974,11.0152 67.8746243,10.7752 L67.6918849,12.0818667 L65.2379562,12.0818667 L65.2379562,0.241866667 L68.1356805,0.241866667 L68.1356805,7.86853333 C68.657793,8.2152 69.1537999,8.5352 69.6498068,8.80186667 C70.1458137,9.0952 70.6679261,9.36186667 71.2161443,9.60186667" id="path26"></path>
                    </g>
                </g>
            </g>
        </g>
    </g>
</svg>