<?xml version="1.0" encoding="UTF-8"?>
<svg width="30px" height="40px" viewBox="0 0 30 40" version="1.1" xmlns="http://www.w3.org/2000/svg"
     xmlns:xlink="http://www.w3.org/1999/xlink">
    <g stroke="none" stroke-width="1" fill="none" fill-rule="evenodd">
        <g id="Footer-Default" transform="translate(-1169.000000, -188.000000)">
            <g transform="translate(1169.000000, 188.000000)">
                <path d="M0,2.4001875 C0,1.0745625 1.074375,0.0001875 2.4,0.0001875 L20,0.0001875 L30,8.4001875 L30,37.6001875 C30,38.9251875 28.925625,40.0001875 27.6,40.0001875 L2.4,40.0001875 C1.074375,40.0001875 0,38.9251875 0,37.6001875 L0,2.4001875 Z"
                      id="Fill-532" fill="#6240AF"></path>
                <path d="M20,0 L20,6 C20,7.325625 21.074375,8.4 22.4,8.4 L30,8.4" id="Fill-533" fill="#7D4DE8"></path>
                <path d="M7.276,21.04825 L6.5885,21.04825 L6.5885,23.861375 L7.351,23.861375 C8.289125,23.861375 8.826,23.41075 8.826,22.398875 C8.826,21.486375 8.314125,21.04825 7.276,21.04825 M7.526,25.361375 L6.5885,25.361375 L6.5885,28.237 L4.512875,28.237 L4.512875,19.57325 L7.251,19.57325 C9.614125,19.57325 10.964125,20.49825 10.964125,22.398875 C10.964125,24.436375 9.576625,25.361375 7.526,25.361375"
                      id="Fill-534" fill="#B08EFF"></path>
                <path d="M14.3884375,21.0733125 L13.9634375,21.0733125 L13.9634375,26.7370625 L14.3884375,26.7370625 C15.5259375,26.7370625 16.2884375,26.1245625 16.2884375,23.8614375 C16.2884375,21.5483125 15.4759375,21.0733125 14.3884375,21.0733125 M14.2384375,28.2370625 L11.8878125,28.2370625 L11.8878125,19.5733125 L14.0884375,19.5733125 C16.3140625,19.5733125 18.4390625,20.2851875 18.4390625,23.8614375 C18.4390625,27.3870625 16.4015625,28.2370625 14.2384375,28.2370625"
                      id="Fill-535" fill="#B08EFF"></path>
                <polygon id="Fill-536" fill="#B08EFF"
                         points="22.0510625 21.04825 22.0510625 23.323875 25.0766875 23.323875 25.0766875 24.811375 22.0510625 24.811375 22.0510625 28.237 19.9629375 28.237 19.9629375 19.57325 25.6766875 19.57325 25.4641875 21.04825"></polygon>
            </g>
        </g>
    </g>
</svg>